<svg width="601" height="547" viewBox="0 0 601 547" fill="none" xmlns="http://www.w3.org/2000/svg">
<path opacity="0.1" d="M712.171 210.748C693.298 168.456 667.367 131.367 634.344 99.709C601.103 68.283 562.197 43.7118 517.379 26.2224C472.575 8.74241 423.527 3.33682e-05 369.993 2.86881e-05C316.459 2.4008e-05 268.123 8.74239 223.079 26.2224C178.044 43.7117 138.665 68.283 105.17 99.709C71.684 131.367 45.7433 168.456 27.3572 211.221C8.96635 253.755 -2.60045e-05 300.295 -3.04044e-05 350.625C-3.48044e-05 400.955 8.97109 447.486 27.3571 490.02C45.748 532.544 71.4573 569.633 104.698 601.3C137.952 632.958 177.099 657.53 222.607 674.778C268.128 692.267 317.413 701 370.942 701C424.471 701 472.58 692.267 517.384 674.778C562.197 657.53 601.103 633.2 634.348 601.774C667.372 570.579 693.303 533.491 712.175 490.493C730.802 447.486 740 400.946 740 350.625C740 300.305 730.802 253.041 712.171 210.748ZM587.425 368.347L493.799 530.652C488.374 539.868 478.714 545.544 468.331 545.544L281.094 545.544C270.248 545.544 260.819 539.868 255.635 530.652L162.009 368.347C156.815 359.131 156.815 347.787 162.009 338.813L255.635 176.252C260.814 167.278 270.248 161.61 281.094 161.61L468.331 161.61C478.718 161.61 488.379 167.273 493.799 176.252L587.425 338.813C592.619 347.787 592.619 359.126 587.425 368.347Z" fill="white"/>
</svg>
